<svg width="1600" height="900" viewBox="0 0 1600 900" fill="none" xmlns="http://www.w3.org/2000/svg">
  <rect width="1600" height="900" fill="#F8FAFC"/>
  <rect width="1600" height="900" fill="url(#bg)"/>
  <rect y="664" width="1600" height="236" fill="#0F172A"/>
  <rect y="612" width="1600" height="54" fill="#1E293B"/>
  <g opacity="0.85">
    <rect x="210" y="255" width="48" height="409" fill="#1D4ED8"/>
    <rect x="258" y="255" width="18" height="409" fill="#60A5FA"/>
    <rect x="256" y="255" width="518" height="28" rx="14" fill="#1D4ED8"/>
    <rect x="736" y="255" width="72" height="18" rx="9" fill="#93C5FD"/>
    <path d="M765 273V405" stroke="#0F172A" stroke-width="10" stroke-linecap="round"/>
    <path d="M765 405L674 523" stroke="#0F172A" stroke-width="10" stroke-linecap="round"/>
    <rect x="614" y="514" width="120" height="84" rx="20" fill="#E0F2FE"/>
  </g>
  <g opacity="0.95">
    <rect x="920" y="334" width="172" height="330" rx="18" fill="#F8FAFC"/>
    <rect x="1110" y="286" width="184" height="378" rx="18" fill="#DBEAFE"/>
    <rect x="1298" y="228" width="146" height="436" rx="18" fill="#BFDBFE"/>
    <rect x="934" y="374" width="144" height="14" rx="7" fill="#1D4ED8" opacity="0.35"/>
    <rect x="1128" y="334" width="148" height="14" rx="7" fill="#2563EB" opacity="0.35"/>
    <rect x="1312" y="286" width="118" height="14" rx="7" fill="#2563EB" opacity="0.35"/>
  </g>
  <g opacity="0.45" stroke="#2563EB" stroke-width="2">
    <path d="M104 150H1496"/>
    <path d="M104 234H1496"/>
    <path d="M104 318H1496"/>
    <path d="M104 402H1496"/>
  </g>
  <defs>
    <linearGradient id="bg" x1="187" y1="110" x2="1472" y2="761" gradientUnits="userSpaceOnUse">
      <stop stop-color="#EFF6FF"/>
      <stop offset="0.56" stop-color="#F8FAFC"/>
      <stop offset="1" stop-color="#E0F2FE"/>
    </linearGradient>
  </defs>
</svg>
