<svg xmlns="http://www.w3.org/2000/svg" viewBox="0 0 1200 675"><rect width="1200" height="675" fill="#07130f"/><g transform="translate(125 100)"><rect x="90" y="95" width="760" height="310" rx="18" fill="#111827" stroke="#64748b" stroke-width="5"/><g stroke="#94a3b8" stroke-width="8"><path d="M170 40v105M330 40v105M490 40v105M650 40v105M810 40v105"/><path d="M120 145h760M120 225h760M120 305h760"/><path d="M200 120v245M360 120v245M520 120v245M680 120v245"/></g><g fill="#f8fafc"><rect x="235" y="170" width="90" height="45" rx="8"/><rect x="555" y="250" width="90" height="45" rx="8"/></g><g fill="#10b981"><circle cx="425" cy="180" r="18"/><circle cx="745" cy="340" r="18"/></g><path d="M130 435h740" stroke="#34d399" stroke-width="10"/></g><rect x="28" y="28" width="1144" height="619" rx="26" fill="none" stroke="#10b981" stroke-opacity=".22" stroke-width="2"/></svg>