<svg xmlns="http://www.w3.org/2000/svg" viewBox="0 0 1200 675"><rect width="1200" height="675" fill="#0b0718"/><rect y="500" width="1200" height="175" fill="#17111f"/><g transform="translate(220 90)"><rect x="220" y="65" width="260" height="430" rx="18" fill="#5b3a24" stroke="#f59e0b" stroke-width="8"/><rect x="255" y="90" width="190" height="380" fill="#1f2937"/><g stroke="#ef4444" stroke-width="10"><path d="M285 80v410M325 80v410M365 80v410M405 80v410"/><path d="M270 145h190M270 215h190M270 285h190M270 355h190M270 425h190"/></g><g stroke="#c084fc" stroke-width="10"><path d="M130 120l90 40v300l-90 40zM570 120l-90 40v300l90 40z"/></g><path d="M120 520h480" stroke="#f87171" stroke-width="12"/></g><rect x="28" y="28" width="1144" height="619" rx="26" fill="none" stroke="#ef4444" stroke-opacity=".22" stroke-width="2"/></svg>