<svg xmlns="http://www.w3.org/2000/svg" viewBox="0 0 1200 675"><rect width="1200" height="675" fill="#0b0718"/><g transform="translate(180 95)"><rect x="120" y="90" width="520" height="400" rx="18" fill="#475569" stroke="#cbd5e1" stroke-width="6"/><g stroke="#f59e0b" stroke-width="10"><path d="M220 130v320M320 130v320M420 130v320M520 130v320"/><path d="M180 190h400M180 285h400M180 380h400"/></g><g fill="#a78bfa"><rect x="145" y="145" width="28" height="70" rx="8"/><rect x="145" y="300" width="28" height="70" rx="8"/><rect x="590" y="145" width="28" height="70" rx="8"/><rect x="590" y="300" width="28" height="70" rx="8"/></g><g stroke="#ef4444" stroke-width="8"><path d="M120 520h520"/><path d="M85 90v400"/></g><path d="M690 160h190v250H690z" fill="#1f2937" stroke="#94a3b8" stroke-width="5"/><g fill="#a78bfa"><circle cx="745" cy="225" r="28"/><circle cx="825" cy="225" r="28"/><circle cx="785" cy="330" r="28"/></g></g><rect x="28" y="28" width="1144" height="619" rx="26" fill="none" stroke="#ef4444" stroke-opacity=".22" stroke-width="2"/></svg>