<svg xmlns="http://www.w3.org/2000/svg" viewBox="0 0 1200 675"><defs><linearGradient id="bg" x1="0" y1="0" x2="1" y2="1"><stop stop-color="#090619"/><stop offset=".55" stop-color="#24104d"/><stop offset="1" stop-color="#090b16"/></linearGradient><linearGradient id="wet" x1="0" y1="0" x2="1" y2="1"><stop stop-color="#d1d5db"/><stop offset="1" stop-color="#6b7280"/></linearGradient></defs><rect width="1200" height="675" fill="url(#bg)"/><rect y="495" width="1200" height="180" fill="#1b1620"/><g transform="translate(70 80)"><polygon points="80,320 760,320 1030,465 345,465" fill="#111827" stroke="#64748b" stroke-width="5"/><polygon points="105,331 520,331 690,425 275,425" fill="url(#wet)" stroke="#e5e7eb" stroke-width="4"/><path d="M265 365c115-18 240-15 360 8" stroke="#f8fafc" stroke-width="7" fill="none" opacity=".85"/><path d="M305 393c100-14 205-9 302 10" stroke="#cbd5e1" stroke-width="5" fill="none" opacity=".9"/><g stroke="#f59e0b" stroke-width="5.5"><path d="M520 318h310"/><path d="M550 335h310"/><path d="M580 352h310"/><path d="M610 369h310"/><path d="M640 386h310"/><path d="M670 403h310"/><path d="M655 270l215 195"/><path d="M725 270l215 195"/><path d="M795 270l215 195"/></g><path d="M810 70c-130 0-185 62-216 145-18 49-58 72-112 98" fill="none" stroke="#d1d5db" stroke-width="28" stroke-linecap="round"/><path d="M805 70h170" stroke="#d1d5db" stroke-width="28" stroke-linecap="round"/><rect x="940" y="29" width="94" height="82" rx="14" fill="#92400e" stroke="#fbbf24" stroke-width="5"/><circle cx="960" cy="121" r="21" fill="#111827" stroke="#64748b" stroke-width="6"/><circle cx="1015" cy="121" r="21" fill="#111827" stroke="#64748b" stroke-width="6"/><path d="M476 307c-8 31-4 51 24 69 27 17 72 23 119 22" stroke="#bfc5cf" stroke-width="20" fill="none" stroke-linecap="round"/><path d="M575 279v155" stroke="#475569" stroke-width="16" stroke-linecap="round"/><path d="M562 294l28 0" stroke="#94a3b8" stroke-width="7"/><path d="M560 405c30-8 52-9 80-2" stroke="#38bdf8" stroke-width="5" opacity=".68"/><path d="M235 426h670" stroke="#10b981" stroke-width="5" opacity=".62"/><g fill="#f8fafc"><circle cx="385" cy="360" r="7"/><circle cx="430" cy="375" r="6"/><circle cx="470" cy="390" r="7"/></g></g><rect x="28" y="28" width="1144" height="619" rx="26" fill="none" stroke="#f59e0b" stroke-opacity=".22" stroke-width="2"/></svg>