<svg xmlns="http://www.w3.org/2000/svg" viewBox="0 0 1200 675"><rect width="1200" height="675" fill="#0b0718"/><rect y="500" width="1200" height="175" fill="#17111f"/><g transform="translate(120 85)"><rect x="70" y="305" width="820" height="165" rx="22" fill="#737373" stroke="#d4d4d4" stroke-width="5"/><g stroke="#f59e0b" stroke-width="5" opacity=".7"><path d="M115 300h720M160 325h720"/></g><rect x="835" y="60" width="120" height="82" rx="18" fill="#ef4444" stroke="#fecaca" stroke-width="5"/><path d="M895 140c-110 35-210 70-275 130" stroke="#f59e0b" stroke-width="15" fill="none" stroke-linecap="round"/><path d="M620 270v155" stroke="#374151" stroke-width="18" stroke-linecap="round"/><path d="M620 425v35" stroke="#111827" stroke-width="12"/><g fill="none" stroke="#c084fc" stroke-width="8" opacity=".85"><path d="M555 320c-50 30-50 80 0 110"/><path d="M685 320c50 30 50 80 0 110"/><path d="M505 285c-95 55-95 135 0 190"/><path d="M735 285c95 55 95 135 0 190"/></g><g fill="#e5e7eb"><circle cx="260" cy="390" r="11"/><circle cx="350" cy="430" r="9"/><circle cx="780" cy="380" r="10"/></g></g><rect x="28" y="28" width="1144" height="619" rx="26" fill="none" stroke="#ef4444" stroke-opacity=".24" stroke-width="2"/></svg>