<?xml version="1.0" encoding="UTF-8"?><svg xmlns="http://www.w3.org/2000/svg" width="1600" height="900" viewBox="0 0 1600 900" role="img" aria-labelledby="title desc"><title>Düzensizlik açıklama şeması</title><desc>Düzensizlik açıklama şeması</desc><defs><marker id="arrow" markerWidth="10" markerHeight="10" refX="8" refY="3" orient="auto" markerUnits="strokeWidth"><path d="M0,0 L0,6 L9,3 z" fill="#12A9C6" /></marker><marker id="arrowN" markerWidth="10" markerHeight="10" refX="8" refY="3" orient="auto" markerUnits="strokeWidth"><path d="M0,0 L0,6 L9,3 z" fill="#123B63" /></marker><style>.bg{fill:#FFFFFF}.panel{fill:#F8FBFC;stroke:#DDE8EE;stroke-width:2;rx:28}.frame{fill:none;stroke:#123B63;stroke-width:8;stroke-linecap:round;stroke-linejoin:round}.thin{fill:none;stroke:#123B63;stroke-width:4;stroke-linecap:round;stroke-linejoin:round}.cyan{fill:none;stroke:#12A9C6;stroke-width:8;stroke-linecap:round;stroke-linejoin:round}.cyanThin{fill:none;stroke:#12A9C6;stroke-width:4;stroke-linecap:round;stroke-linejoin:round}.solidN{fill:#123B63}.solidC{fill:#12A9C6}.softC{fill:#E8F8FB;stroke:#12A9C6;stroke-width:3}.softN{fill:#EEF4F7;stroke:#123B63;stroke-width:3}.txt{font-family:Arial,Helvetica,sans-serif;fill:#19324a;font-size:34px;font-weight:600}.small{font-family:Arial,Helvetica,sans-serif;fill:#19324a;font-size:26px;font-weight:600}.tiny{font-family:Arial,Helvetica,sans-serif;fill:#19324a;font-size:22px;font-weight:500}.label{font-family:Arial,Helvetica,sans-serif;fill:#123B63;font-size:26px;font-weight:700}.cap{font-family:Arial,Helvetica,sans-serif;fill:#123B63;font-size:44px;font-weight:700}.muted{stroke:#93A8B8;stroke-width:3;fill:none;stroke-dasharray:8 8}.warn{fill:#C74F4F;stroke:#C74F4F;stroke-width:3}</style></defs><rect class="bg" x="0" y="0" width="1600" height="900"/><text x="120" y="120" class="cap">Plan ve Düşey Düzensizlik Ayrımı</text><rect x="90" y="170" width="620" height="650" class="panel"/><rect x="890" y="170" width="620" height="650" class="panel"/><text x="320" y="235" class="txt">Plan</text><polygon points="220,340 420,340 420,420 500,420 500,620 220,620" fill="#FFFFFF" stroke="#123B63" stroke-width="8"/><circle cx="365" cy="480" r="55" class="solidC" opacity="0.12"/><path d="M 365 425 A 55 55 0 1 1 364 425" class="cyanThin"/><text x="250" y="710" class="small">Burulma ve çıkma etkisi</text><text x="1110" y="235" class="txt">Düşey</text><polygon points="1040,660 1040,300 1360,300 1360,660" fill="#FFFFFF" stroke="#123B63" stroke-width="8"/><line x1="1040" y1="580" x2="1360" y2="580" class="thin"/><line x1="1040" y1="500" x2="1360" y2="500" class="thin"/><line x1="1040" y1="420" x2="1360" y2="420" class="thin"/><line x1="1040" y1="340" x2="1360" y2="340" class="thin"/><rect x="1040" y="580" width="320" height="80" fill="#E8F8FB" opacity="0.75"/><text x="1090" y="710" class="small">Yumuşak kat ve süreksizlik</text></svg>