<svg xmlns="http://www.w3.org/2000/svg" width="1600" height="900" viewBox="0 0 1600 900"><rect width="1600" height="900" fill="#F8FBFC"/><text x="110" y="125" font-family="Arial" font-size="42" font-weight="700" fill="#123B63">Çatlak Genişliği ve Kullanılabilirlik</text><rect x="230" y="260" width="1140" height="460" fill="#F2F6F8" stroke="#123B63" stroke-width="8"/><g fill="#123B63"><circle cx="350" cy="650" r="17"/><circle cx="540" cy="650" r="17"/><circle cx="730" cy="650" r="17"/><circle cx="920" cy="650" r="17"/><circle cx="1110" cy="650" r="17"/><circle cx="1300" cy="650" r="17"/></g><g fill="none" stroke="#12A9C6" stroke-width="8"><path d="M420 720L395 615L430 545L405 455"/><path d="M650 720L625 610L660 525L640 430"/><path d="M880 720L850 610L890 530L870 445"/><path d="M1120 720L1095 615L1130 535L1110 460"/></g><text x="800" y="790" font-family="Arial" font-size="29" text-anchor="middle" fill="#12A9C6">Servis Çatlakları · Donatı Aralığı · Pas Payı</text></svg>